<svg xmlns="http://www.w3.org/2000/svg" viewBox="0 0 95.39 131.07" width="50" height="50">
  <path fill="#FFA000" d="M0.05,105.75L16.18,2.52c0.2-1.27,1.18-2.26,2.44-2.48s2.52,0.4,3.13,1.53l16.68,31.12l6.65-12.66c0.51-0.98,1.53-1.59,2.64-1.59s2.12,0.61,2.64,1.59l45.02,85.72L0.05,105.75L0.05,105.75z"/>
  <path fill="#F57C00" d="M55.78,65.54L38.43,32.68L0.05,105.75L55.78,65.54z"/>
  <path fill="#FFCA28" d="M95.39,105.75L83.03,29.29c-0.19-1.1-0.97-2-2.03-2.34s-2.22-0.06-3.01,0.73L0.05,105.75l43.12,24.18c2.71,1.51,6.01,1.51,8.71,0L95.39,105.75L95.39,105.75z"/>
</svg>
